<svg width="1512" height="1776" viewBox="0 0 1512 1776" fill="none" xmlns="http://www.w3.org/2000/svg">
<path d="M1639.45 -350.838C1635.01 -352.236 1631.94 -347.942 1633.3 -342.251C1634.66 -336.56 1637.63 -336.725 1640.98 -342.177C1643.93 -346.988 1643.31 -349.575 1639.45 -350.838Z" fill="#9F0000"/>
<path d="M1609.2 -464.496C1604.64 -473.251 1602.91 -474.751 1597.74 -473.511C1594.37 -472.705 1590.86 -470.222 1590.26 -468.163C1587.07 -458.645 1574.55 -445.797 1568.09 -445.343C1564.61 -445.054 1557.74 -442.862 1552.88 -440.328C1548.01 -437.795 1535.57 -432.624 1525.21 -429.046C1508.11 -422.76 1506.48 -421.549 1500.44 -410.252C1497.14 -403.444 1494.24 -397.278 1494.49 -396.243C1494.68 -395.467 1490.31 -390.864 1484.84 -386.271C1476.32 -379.579 1473.34 -378.317 1468.06 -379.788C1460.21 -381.735 1441.36 -374.755 1434.9 -367.462C1432.29 -364.648 1431.17 -362.465 1432.2 -362.713C1434.79 -363.334 1427.9 -345.269 1423.26 -339.507C1421.63 -337.2 1415.77 -331.966 1410.5 -327.694C1405.23 -323.422 1397.66 -315.043 1393.54 -309.405L1386.21 -298.894L1371.64 -300.325C1357.13 -301.498 1356.87 -301.436 1347.5 -293.719C1330.51 -278.979 1325.98 -257.924 1336.93 -243.042C1339.8 -239.079 1343.22 -232.787 1344.87 -229.351C1348.34 -221.704 1343.96 -216.004 1318.38 -193.733C1309.07 -185.758 1299.63 -177.203 1297.16 -174.969C1292.01 -170.179 1262.03 -146.854 1250.33 -138.579C1233.44 -126.87 1224.62 -136.247 1218.85 -172.887C1216.55 -188.201 1217.01 -195.423 1221.48 -210.994C1224.43 -221.547 1227.31 -232.359 1227.66 -235.453C1227.82 -238.226 1231.61 -249.803 1235.72 -261.184C1239.9 -272.306 1242.52 -283.055 1241.63 -284.484C1240.68 -286.17 1238.44 -281.804 1236.89 -274.593C1235.27 -267.64 1231.82 -258.06 1229.13 -253.311C1226.43 -248.563 1222.28 -239.634 1219.96 -233.333C1215.59 -221.891 1215.59 -221.891 1215.02 -229.961C1214.1 -254.36 1213.83 -279.462 1214.78 -284.614C1215.39 -287.77 1216.27 -297.827 1216.55 -306.922C1216.83 -316.017 1218.05 -328.071 1219.2 -333.544C1220.09 -338.955 1220.55 -346.177 1220.39 -349.147C1219.9 -352.313 1220.77 -362.37 1222.15 -371.454C1225.94 -395.614 1225.69 -403.488 1220.78 -402.309C1215.86 -401.131 1213.26 -385.735 1209.47 -335.315C1207.89 -312.232 1205.77 -286.83 1204.98 -278.708C1203.93 -270.524 1203.65 -254.59 1203.92 -243.167C1204.46 -231.806 1203.11 -219.172 1201.52 -215.51C1198.62 -209.344 1192.48 -156.172 1190.73 -122.379C1190.41 -115.737 1188.4 -108.143 1186.11 -105.132C1184.14 -101.925 1183 -97.5486 1183.56 -95.2204C1184.18 -92.6335 1183.18 -88.8364 1181.54 -86.5294C1179.9 -84.2224 1177.24 -75.9248 1175.42 -67.5545C1171.16 -47.6583 1156.26 -23.0258 1140.52 -9.95093C1133.23 -3.82725 1119.99 3.72293 1109.43 7.62125C1099.19 11.7162 1087.97 17.4148 1084.13 20.7973C1070.13 33.1793 1030.64 92.158 1026.36 107.408C1024.49 113.326 1022.18 118.53 1021.15 118.778C1020.11 119.027 1013.6 112.382 1006.39 103.989C997.645 93.7747 990.537 88.0926 984.038 86.0941C978.76 84.6235 974.827 84.1984 975.013 84.9744C975.509 87.0439 990.677 100.095 994.475 101.1C996.338 102.021 1003.64 107.382 1010.55 113.385C1023.03 124.346 1023.03 124.346 1022.01 136.079C1020.95 145.36 1023.16 156.866 1031.33 186.367C1040.87 220.463 1041.78 226.537 1040.71 243.754C1039.27 265.161 1036.06 276.873 1025.64 299.613C1009.95 333.465 996.517 347.078 969.832 356.757C954.482 362.351 950.487 361.667 954.816 354.611C957.177 350.763 955.252 349.583 915.529 326.552C903.081 319.14 892.568 311.812 892.196 310.26C891.762 308.449 889.105 303.068 886.25 298.008C882.258 290.484 880.271 289.046 876.058 290.876C873.077 292.138 870.012 295.334 869.018 298.035C867.754 301.894 869.409 304.233 877.552 309.667C920.648 337.634 944.031 355.281 945.457 361.231C947.628 370.285 912.834 364.4 902.095 353.844C895.64 347.458 895.381 347.52 898.484 353.615C901.4 358.934 900.934 360.414 895.613 363.33C883.936 369.411 872.327 362.073 863.474 343.405C859.172 334.588 855.261 331.969 845.129 331.936C832.802 331.881 824 347.669 821.744 373.649C820.133 393.184 820.545 397.188 826.522 412.99C830.234 422.768 837.318 437.483 842.655 446.052C855.801 467.794 888.303 542.89 889.664 555.42C890.449 560.977 892.082 565.509 893.117 565.261C894.411 564.951 895.746 567.093 896.169 570C897.263 576.85 889.759 578.649 881.937 573.411C878.408 571.248 874.093 570.368 872.209 571.64C870.325 572.912 864.26 572.725 858.661 571.057C843.666 566.718 816.3 573.551 803.214 585.168L793.254 593.847L805.373 595.319C811.882 596.22 830.481 595.045 846.441 593.135C875.649 589.417 888.223 590.506 889.897 597.491C890.331 599.302 887.617 606.244 884.003 612.855L877.24 624.597L859.21 627.003C849.388 628.263 834.846 630.381 826.897 631.466C818.948 632.55 808.164 633.22 803.134 632.785C797.587 632.473 785.301 634.87 773.128 638.882C754.093 645.086 749.829 645.561 721.192 643.671C704.23 642.539 682.569 640.071 673.358 638.176C658.673 635.13 653.25 635.336 628.088 641.093C607.325 645.796 597.182 646.86 591.066 645.316C583.15 643.111 582.373 643.297 578.511 648.873C576.347 652.401 570.031 658.018 564.834 661.452C558.209 665.775 556.967 667.44 560.848 666.51C564.015 666.025 571.603 662.291 577.773 658.35C586.8 652.631 591.654 651.194 605.668 650.297C614.838 649.74 626.792 648.243 632.226 646.94C637.66 645.638 645.93 644.75 650.639 644.989C655.348 645.228 664.704 645.448 671.607 645.708C707.809 646.058 715.933 646.846 715.384 650.261C715.103 652.516 716.583 652.982 719.761 651.4C722.163 650.003 730.495 649.374 738.039 650.028C745.843 650.62 754.298 650.508 757.403 649.763C762.061 648.647 762.889 649.816 764.479 658.736C766.989 672.632 772.887 676.69 784.997 672.42C790.307 670.6 795.493 668.262 796.281 666.98C796.809 665.759 800.245 664.114 803.609 663.308C806.973 662.502 809.189 660.33 808.693 658.26C807.143 651.793 811.418 650.221 839.332 646.813C870.993 643.054 877.429 644.794 870.616 655.181C864.982 663.643 860.904 664.894 853.599 659.533C850.33 657.308 846.666 655.724 845.373 656.034C844.079 656.344 846.313 658.817 850.545 661.633L858.047 666.673L851.319 668.286C847.696 669.154 844.125 671.378 843.462 673.178C843.058 674.916 838.823 678.94 834.403 682.188C825.562 688.684 819.605 703.789 822.085 714.137C825.433 728.106 820.908 735.482 814.609 726.324C812.447 723.012 810.708 722.608 808.358 725.36C805.49 728.236 805.676 729.012 810.56 731.124C816.986 733.96 816.531 734.343 798.768 742.43C794.099 744.643 782.288 751.304 772.806 757.406C763.261 763.25 752.889 767.925 749.857 767.831C746.762 767.478 742.808 769.247 740.975 771.874C738.49 775.206 725.479 779.145 688.217 788.076C641.899 799.177 637.956 799.849 626.303 796.897C603.515 790.87 575.588 802.214 565.335 821.084L559.742 831.999L543.917 833.33C528.548 834.279 516.623 839.325 520.265 843.102C521.289 843.951 530.211 842.36 540.117 839.165L557.92 833.53L562.627 840.609C567.964 849.177 576.398 851.259 595.525 848.863C607.8 847.562 611.237 845.918 621.134 836.98C627.191 831.425 633.921 822.973 636.096 818.349L639.535 809.865L680.296 799.548C751.725 781.334 783.844 770.353 806.121 755.986C816.318 749.439 821.049 747.485 824.132 748.934C830.682 752.288 831.249 760.359 825.089 763.203C821.912 764.785 816.467 767.184 813.03 768.829C805.898 772.179 799.57 785.732 803.47 789.448C804.939 791.011 811.015 790.101 820.341 786.772L834.656 781.426L845.84 792.697C851.913 798.627 858.256 803.398 859.549 803.088C861.102 802.716 857.415 810.165 851.45 819.527C841.882 834.404 841.011 837.622 843.316 846.097C844.815 851.208 846.904 855.358 848.198 855.048C849.233 854.8 850.826 856.88 851.446 859.467C853.368 867.486 866.457 875.291 876.921 874.424C883.121 874.032 891.288 870.434 900.511 864.393C926.816 847.42 926.236 847.285 927.587 860.912C929.227 878.027 932.051 879.538 948.634 873.375C961.2 868.722 962.815 868.609 966.839 872.842C970.284 876.94 970.324 879.392 966.823 887.617C964.254 892.883 962.813 901.708 963.276 907.068C963.74 912.428 961.377 923.116 957.813 931.082C950.024 948.815 930.504 978.113 921.197 986.089C910.327 995.533 897.473 1022.96 874.711 1086.68C870.992 1097.42 865.553 1112.4 862.445 1119.98C859.4 1127.83 857.513 1135.94 858.009 1138.01C858.567 1140.34 855.646 1148.7 851.503 1156.53C847.36 1164.36 844.252 1171.94 844.562 1173.24C844.873 1174.53 842.77 1178.32 839.706 1181.51C832.924 1188.61 825.783 1186.22 823.303 1175.87C821.691 1169.14 816.001 1163.67 811.861 1164.66C809.532 1165.22 820.377 1197.91 824.97 1203.37C827.587 1206.3 826.375 1211.52 819.714 1225.97C815.095 1236.38 807.906 1252.05 804.074 1261.18C800.179 1270.04 791.842 1284.35 785.692 1292.94C771.04 1312.86 764.606 1330.54 767.458 1342.44C771.55 1359.52 784.518 1359.96 793.974 1343.47C801.855 1329.55 804.259 1321.31 806.584 1301.33C809.834 1272.65 812.104 1265 823.526 1245.3C829.502 1234.84 836.297 1219.81 838.701 1211.57C842.442 1198.64 852.644 1178.41 867.131 1155.52C869.492 1151.67 871.15 1147.17 870.84 1145.88C870.22 1143.29 878.05 1128.01 893.874 1100.42C899.062 1091.24 911.48 1068.84 921.215 1050.09C931.013 1031.61 940.665 1014.8 942.683 1012.94C944.702 1011.09 947.799 1004.61 949.406 998.75C952.505 985.423 953.427 983.561 971.852 947.413C979.879 931.812 988.671 917.121 991.342 914.566C999.676 907.098 1007.43 906.334 1012.01 912.895C1014.17 916.206 1017.7 918.37 1020.03 917.812C1025.72 916.447 1025.5 918.961 1017.74 934.501C1013.85 942.27 1007.91 956.279 1004.07 965.404C1000.24 974.529 996.481 982.816 995.508 983.323C992.972 985.298 994.285 989.634 997.131 988.952C998.425 988.642 1001.13 982.796 1003.32 975.978C1005.46 968.901 1012.19 953.61 1018.63 941.671C1025.08 929.732 1029.89 919.004 1029.64 917.969C1029.33 916.676 1031.55 914.503 1034.73 912.921C1038.82 910.573 1039.87 908.132 1038.37 903.02C1033.88 887.685 1043.28 876.678 1064.17 872.492C1076.19 870.156 1077.09 870.488 1077.74 876.624C1078.09 880.369 1076.65 889.195 1074.78 896.21C1072.63 904.383 1072.32 909.929 1074.24 911.109C1076.17 912.289 1077.67 910.562 1078.93 906.702C1079.74 903.226 1081.64 900.857 1083.38 901.261C1087.3 902.783 1085.66 898.251 1081.17 895.497C1078.61 893.924 1078.17 892.113 1079.68 889.289C1080.54 887.168 1081.19 880.722 1080.98 875.3C1080.54 867.747 1082.13 864.084 1087.2 860.133C1091.36 856.947 1094.98 850.336 1096.6 842.286C1102.16 815.241 1106.04 807.471 1117 802.932C1125.42 799.271 1128.13 799.168 1131.97 802.625C1137.41 807.065 1140.55 816.709 1137.68 819.585C1136.57 820.671 1136.74 823.64 1138.13 826.041C1139.27 828.504 1139.69 838.251 1138.95 847.729C1137.95 857.268 1138.35 869.209 1139.66 874.641C1147.22 906.201 1143.66 986.11 1132.58 1036.91C1132.11 1038.39 1133.15 1038.14 1134.71 1036.67C1143.97 1027.34 1152.28 917.025 1147.47 867.297C1145.64 850.503 1150.18 847.773 1164.87 856.561C1171.23 860.235 1182.09 864.47 1188.79 866.148C1214.55 872.01 1216.01 867.83 1204.24 817.583C1195.94 781.822 1195.4 777.3 1198.34 767.843C1200.2 761.925 1205.31 754.684 1209.53 751.756C1217.72 745.964 1245.66 713.005 1254.26 698.635C1257.47 693.763 1261.59 681.285 1264.02 670.856C1269.97 643.169 1276.2 632.648 1290.52 627.302C1312.61 618.998 1319.57 613.775 1327.64 599.529C1340.71 576.427 1335.22 551.21 1311.6 524.592C1304.07 516.003 1298.59 508.014 1299 506.275C1299.46 504.796 1307.54 497.389 1316.52 490.314C1326.86 482.091 1334.49 473.97 1336.22 468.632C1337.81 463.872 1345.44 450.009 1352.91 437.822C1360.33 425.377 1367.43 411.638 1368.31 407.323C1370.53 398.311 1383.56 379.597 1393.13 371.56C1396.51 368.56 1403.37 360.625 1408.01 353.766C1412.92 346.845 1418.34 340.897 1420.41 340.401C1426.36 338.974 1439.46 312.582 1439.77 301.294C1439.95 295.231 1439.14 286.125 1437.9 280.951C1434.92 268.534 1438.31 239.274 1444.97 217.982C1447.97 208.784 1456.73 190.544 1464.73 177.136C1472.42 163.532 1482.36 143.368 1486.41 131.729C1490.52 120.348 1495.62 107.364 1497.66 103.319C1506.73 86.3725 1519.97 66.2405 1529.96 54.2714C1535.64 47.1644 1544.99 34.802 1550.17 26.7222C1558.56 13.7698 1561.95 10.77 1578.67 2.93094C1588.98 -2.00213 1601.18 -8.20742 1605.59 -10.3586C1612.14 -13.8439 1614.07 -13.7607 1616.17 -10.7079C1617.71 -8.88643 1617.55 -6.1135 1616.12 -5.224C1611.32 -2.43145 1614.12 1.27342 1619.81 -0.0910339C1628.61 -2.19974 1644.88 -22.238 1642.42 -27.9397C1638.2 -38.6912 1631.35 -37.5961 1613.38 -22.3489C1602 -12.7806 1591.48 -6.43008 1581.12 -2.85248L1565.51 2.80362L1563.71 -4.6983C1562.98 -8.89934 1564.38 -20.1772 1567.25 -29.8923C1569.86 -39.5454 1574.89 -58.5309 1578.38 -72.4985C1581.68 -86.1453 1585.23 -99.8542 1586.1 -103.072C1588.99 -114.981 1595.17 -158.861 1594.36 -162.224C1594.18 -163 1593.02 -163.269 1591.72 -162.959C1590.43 -162.649 1589.93 -157.879 1590.2 -152.198C1590.66 -146.838 1588.05 -130.346 1584.62 -116.12C1580.99 -101.573 1577.35 -85.929 1576.01 -81.2318C1575 -76.338 1570.05 -59.2874 1565.44 -43.1369C1560.83 -26.9864 1555.55 -7.93885 1553.99 -0.727386C1550.22 15.4958 1537.81 36.7972 1515.73 64.5218C1495.14 90.5188 1454.42 155.809 1455.6 160.724C1456.1 162.794 1450.85 177.454 1444.25 193.263C1432.55 220.959 1424.91 249.597 1427.02 258.393C1427.52 260.462 1426.79 262.004 1425.31 261.538C1423.83 261.072 1423.24 262.034 1423.68 263.845C1424.31 265.335 1425.7 274.575 1426.9 284.136C1429.44 307.324 1422.63 324.55 1403.88 341.08C1396.39 347.524 1389.22 355.262 1387.9 357.766C1386.65 360.528 1382.47 365.908 1379.07 370.004L1372.87 377.235L1373.32 371.11C1373.62 366.661 1372.53 365.553 1368.65 366.484C1365.8 367.166 1360.55 370.341 1357.16 373.341C1345.58 383.23 1343.19 382.433 1338.9 366.777C1336.33 358.364 1335.74 352.487 1337.56 352.053C1339.11 351.681 1339.07 349.228 1337.35 346.631C1335.63 344.033 1335.59 341.581 1337.15 341.209C1338.7 340.837 1339.68 339.233 1339.31 337.681C1338.88 335.87 1336.41 337.008 1333.15 340.525C1327.67 346.215 1317.2 348.178 1316.14 343.781C1315.9 342.746 1321.7 330.413 1328.86 316.933C1346.62 283.682 1348.57 274.733 1332.1 303.028C1317.99 326.377 1300.81 348.278 1297.86 346.249C1296.89 345.659 1297.56 343.859 1299.32 342.069C1301.47 339.638 1301.54 338.8 1299.47 339.296C1297.66 339.731 1295.74 338.55 1295.24 336.481C1294.75 334.411 1292.44 332.776 1290.12 332.237C1284.51 331.667 1285.82 323.421 1291.77 321.994C1294.36 321.374 1296.57 319.202 1296.98 317.464C1297.13 314.691 1298.17 314.443 1301.89 316.285C1308.06 319.184 1314.62 314.602 1313.2 308.652C1311.59 301.926 1302.87 302.1 1295.19 308.865C1286.08 316.52 1284.72 316.571 1284.74 308.635C1284.9 304.765 1283.01 300.295 1280.7 298.659C1274.36 293.888 1276.68 287.587 1288.32 279.054C1294.1 274.658 1298.6 270.572 1298.41 269.796C1298.23 269.02 1296.02 270.095 1293.55 272.329C1288.6 276.798 1286.88 274.201 1290.5 267.59C1292.34 263.865 1292.08 263.927 1289.14 267.641C1287.24 270.01 1284.07 271.593 1282.27 270.93C1280.79 270.464 1279.8 272.068 1280.42 274.654C1281.85 280.604 1272.14 290.318 1261.65 293.378C1249.16 297.193 1243.91 299.272 1241.1 302.406C1239.54 303.875 1237.6 304.888 1237.27 304.692C1233.68 302.27 1223.62 288.816 1222.88 285.712C1221.45 279.762 1208.74 279.252 1186.42 284.327C1180.15 285.557 1178.87 284.77 1177.26 278.045C1176.2 273.647 1172.32 267.738 1168.61 264.798C1157.72 255.918 1151.79 242.569 1147.47 215.428C1143.46 190.677 1144.85 180.496 1152.39 181.15C1154.07 181.295 1157.75 187.525 1160.84 194.717C1168.46 213.953 1171.05 213.333 1164.27 194.169C1161.26 185.042 1159.47 176.444 1160.65 174.519C1161.51 172.398 1161.1 168.394 1159.26 165.279C1155.65 158.211 1146.58 161.479 1144.43 170.749C1141.6 182.917 1138.67 185.534 1133.22 181.094C1126.7 175.546 1126.83 174.967 1133.4 163.545C1136.68 157.834 1138.93 152.372 1138.55 150.82C1138.24 149.526 1140.37 143.546 1143.65 137.835C1146.61 131.928 1148.41 126.848 1147.7 126.196C1146.8 125.865 1148.98 121.24 1152.12 116.109C1155.53 110.915 1157.78 105.453 1157.35 103.642C1156.29 99.2442 1165.43 62.0387 1167.36 63.2188C1168.06 63.8708 1169.63 55.5625 1170.7 45.1848C1172.65 23.6532 1176.33 10.4618 1184.29 -5.39825C1188.97 -14.4507 1203.24 -48.5096 1209.66 -65.0942C1211.79 -71.0743 1231.14 -89.6632 1246.6 -100.482C1255.76 -106.782 1272.09 -119.722 1283.28 -128.969C1294.21 -138.155 1304.48 -145.54 1305.7 -145.012C1307.18 -144.546 1310.51 -147.805 1313.58 -152.098C1319.81 -161.523 1335.56 -168.855 1344.06 -166.514C1348.11 -165.572 1350.79 -162.384 1351.91 -157.728C1355.2 -144.018 1376.97 -139.936 1384.83 -151.667C1387.06 -154.936 1402.21 -167.049 1418.39 -178.313C1434.51 -189.836 1451.09 -201.741 1454.93 -205.124C1469.9 -218.013 1494.84 -254.356 1510.57 -285.755L1526.97 -318.954L1548.54 -333.973C1560.44 -342.569 1572.9 -349.933 1576.53 -350.801C1580.15 -351.669 1585.49 -356.779 1589.29 -362.614C1595.06 -371.656 1596.68 -372.866 1601.77 -371.075C1607.11 -369.346 1608.02 -370.111 1608.72 -376.299C1609.34 -380.551 1609.51 -384.421 1609.26 -385.456C1609.02 -386.49 1610.82 -392.667 1613.34 -399.288C1616.19 -406.81 1617.38 -416.67 1616.24 -425.973C1615.42 -433.981 1614.74 -443.666 1614.65 -447.474C1614.3 -451.22 1611.92 -458.856 1609.2 -464.496ZM1469.99 -319.247C1459.68 -301.732 1425.94 -289.541 1400.49 -294.11L1389.92 -295.954L1394.13 -303.527C1396.43 -307.635 1405.62 -317.224 1414.53 -324.558C1423.19 -331.83 1432.83 -340.705 1435.77 -344.419C1443.21 -353.316 1461.15 -359.53 1467.63 -355.338C1475.33 -350.618 1476.55 -330.669 1469.99 -319.247ZM1344.26 418.834C1332.08 436.524 1329.61 438.758 1325.76 436.398C1316.45 430.695 1326.56 406.661 1339.76 403.498C1342.61 402.816 1349.69 398.11 1355.03 393C1371.97 376.904 1371.31 378.704 1344.26 418.834ZM1207.26 -149.319C1207.64 -128.346 1204.94 -116.758 1199.77 -115.517C1197.18 -114.897 1196.87 -123.03 1198.69 -143.982C1199.75 -160.102 1202.01 -173.501 1203.31 -173.811C1206.41 -174.555 1206.97 -172.227 1207.26 -149.319ZM1279.43 329.876C1276.45 331.138 1275.23 330.61 1275.64 327.775C1275.92 325.519 1274.79 323.056 1272.98 322.393C1269.12 321.13 1266.57 311.621 1268.5 305.961C1269.82 302.361 1270.86 302.113 1274.84 303.894C1281.65 307.186 1285.13 327.415 1279.43 329.876ZM1280.75 366.215C1278.47 368.128 1271.65 386.451 1272.33 389.297C1273.13 392.66 1256.39 415.274 1252.25 416.267C1246.56 417.631 1232.13 407.684 1232.95 403.111C1235.23 388.616 1235.23 388.615 1230.26 395.278C1227.24 399.83 1224.78 400.967 1222.53 399.591C1214.19 394.477 1228.55 372.162 1247.04 361.437C1258.34 354.9 1260.73 354.601 1274.4 355.701C1288.91 356.873 1289.92 358.819 1280.75 366.215ZM1117.42 206.492C1117.53 208.106 1117.83 210.496 1117.88 211.851C1118 213.466 1116.52 213 1114.73 211.24C1111.59 208.435 1110.82 208.622 1108.64 213.246C1106.33 218.45 1091.64 235.923 1089.05 236.543C1088.53 236.667 1089.09 232.156 1090.25 226.682C1091.66 221.147 1097.1 211.909 1102.58 206.219C1107.99 200.271 1114.71 192.916 1117.46 189.523L1122.61 183.636L1119.81 193.61C1118.4 199.146 1117.37 205.136 1117.42 206.492Z" fill="#9F0000"/>
<path d="M1709.85 255.707C1707.02 255.292 1704.04 256.554 1702.86 258.478C1701.28 261.044 1701.85 262.275 1705.53 262.763C1708.36 263.177 1711.34 261.916 1712.52 259.991C1714.1 257.426 1713.53 256.194 1709.85 255.707Z" fill="#9F0000"/>
<path d="M1674.18 260.976C1672.49 261.927 1671.51 263.531 1671.75 264.565C1672.76 267.608 1676.19 265.963 1676.74 262.549C1676.83 260.614 1675.54 259.827 1674.18 260.976Z" fill="#9F0000"/>
<path d="M1582.11 8.12595C1579.85 7.84605 1577.33 8.72493 1576.86 10.2044C1575.6 14.0636 1582.23 15.4827 1584.59 11.6342C1585.77 9.70993 1584.94 8.54049 1582.11 8.12595Z" fill="#9F0000"/>
<path d="M1447.42 60.3773C1445.61 60.8115 1443.06 63.8839 1442.19 67.1016C1440.14 72.2436 1440.46 72.4403 1445.2 69.389C1451.11 65.5103 1452.59 59.1369 1447.42 60.3773Z" fill="#9F0000"/>
<path d="M1554.2 675.984C1549.18 674.452 1545.69 681.58 1550.18 684.333C1554.03 686.693 1558.97 683.321 1558.04 679.441C1557.73 678.148 1556 676.647 1554.2 675.984Z" fill="#9F0000"/>
<path d="M1418.59 144.429C1412.92 142.503 1412.99 142.762 1416.75 147.057C1418.99 149.53 1421.87 151.3 1423.17 150.99C1427.57 149.936 1425.08 146.428 1418.59 144.429Z" fill="#9F0000"/>
<path d="M1399.45 233.543C1393.01 231.803 1380.47 234.263 1374.56 238.142C1368.45 242.341 1371.76 247.019 1382.51 249.639C1390.43 251.845 1393.91 251.556 1399.11 248.122C1407.17 242.909 1407.3 235.49 1399.45 233.543Z" fill="#9F0000"/>
<path d="M1358.39 254.051C1355.87 254.93 1349.59 269.839 1351.26 271.081C1352.16 271.412 1354.26 267.626 1356.63 262.68C1358.68 257.538 1359.43 253.803 1358.39 254.051Z" fill="#9F0000"/>
<path d="M1377.55 360.247C1376.45 361.333 1375.46 362.936 1375.65 363.712C1375.77 364.23 1377.19 364.437 1378.48 364.127C1380.04 363.755 1380.76 362.213 1380.39 360.661C1380.08 359.368 1378.92 359.098 1377.55 360.247Z" fill="#9F0000"/>
<path d="M1323.17 199.577C1321.36 200.011 1317.5 212.426 1318.3 215.789C1319.11 219.152 1323.15 215.449 1323.77 211.196C1323.93 208.424 1324.61 204.43 1325.01 202.692C1325.36 200.695 1324.73 199.205 1323.17 199.577Z" fill="#9F0000"/>
<path d="M1350.46 325.981C1349.24 325.453 1346.12 327.294 1343.97 329.726C1340.38 334.143 1340.44 334.401 1346.86 331.495C1353.99 328.145 1354.58 327.183 1350.46 325.981Z" fill="#9F0000"/>
<path d="M1468.78 817.366C1465.26 815.202 1462.46 817.24 1463.39 821.12C1463.89 823.19 1465.36 824.753 1466.65 824.443C1470.01 823.636 1471.35 818.939 1468.78 817.366Z" fill="#9F0000"/>
<path d="M1485.17 969.087C1483.69 968.621 1482.52 969.449 1482.83 970.742C1483.21 972.294 1484.81 973.277 1486.1 972.967C1487.66 972.595 1488.57 971.83 1488.44 971.312C1488.26 970.536 1486.91 969.491 1485.17 969.087Z" fill="#9F0000"/>
<path d="M1175.48 -133.496C1169.29 -134.201 1168.03 -130.342 1173.8 -126.802C1178.29 -124.048 1178.81 -124.172 1179.18 -128.363C1179.65 -130.939 1178.32 -133.081 1175.48 -133.496Z" fill="#9F0000"/>
<path d="M1213.94 31.537C1212.65 31.8471 1211.6 33.192 1211.91 34.4854C1212.29 36.0376 1214.01 37.5383 1215.49 38.0042C1217.23 38.4082 1218.02 37.1253 1217.52 35.0558C1216.96 32.7276 1215.5 31.1649 1213.94 31.537Z" fill="#9F0000"/>
<path d="M1449.03 1035.2C1447.55 1034.73 1446.38 1035.56 1446.69 1036.85C1447.06 1038.4 1448.67 1039.39 1449.96 1039.08C1451.51 1038.7 1452.42 1037.94 1452.3 1037.42C1452.11 1036.64 1450.77 1035.6 1449.03 1035.2Z" fill="#9F0000"/>
<path d="M1165.48 96.4941C1164.21 101.45 1163.77 106.478 1163.89 108.093C1164.32 109.903 1162.22 113.69 1159.15 116.886C1152.83 123.6 1152.88 124.956 1159.6 130.182C1167.16 136.579 1172.97 128.892 1170.32 116.672C1169.02 111.239 1168.01 102.455 1167.6 97.3534L1167.25 87.8652L1165.48 96.4941Z" fill="#9F0000"/>
<path d="M1043.79 -109.863C1034.64 -118.34 1018.72 -113.977 1018.61 -103.009C1018.48 -89.8478 1039.75 -86.7387 1044.97 -99.2056C1047.61 -105.31 1047.56 -106.665 1043.79 -109.863Z" fill="#9F0000"/>
<path d="M1350.47 1562.42C1342.57 1559.12 1337.03 1564.55 1340.31 1572.52C1343.14 1579.77 1353.48 1578.39 1355.49 1570.79C1356.83 1566.1 1355.88 1564.41 1350.47 1562.42Z" fill="#9F0000"/>
<path d="M1179.95 997.107C1178.66 997.417 1177.68 999.021 1177.99 1000.31C1178.36 1001.87 1179.9 1002.59 1181.19 1002.28C1182.75 1001.91 1183.53 1000.63 1183.16 999.074C1182.85 997.78 1181.51 996.735 1179.95 997.107Z" fill="#9F0000"/>
<path d="M1105.04 1080.71C1096.93 1092.51 1090.43 1103.09 1090.68 1104.13C1091.3 1106.71 1078.79 1125.3 1075.94 1125.98C1072.06 1126.92 1053.81 1145.51 1055.73 1146.69C1058.94 1148.66 1082.98 1125.67 1089.61 1114.5C1093.35 1108.41 1101.56 1093.58 1107.94 1081.39L1119.71 1059.69L1105.04 1080.71Z" fill="#9F0000"/>
<path d="M1216.39 1560.09C1215.09 1560.4 1214.23 1562.52 1214.73 1564.59C1215.22 1566.66 1216.95 1568.16 1218.25 1567.85C1219.8 1567.48 1220.4 1565.42 1219.9 1563.35C1219.41 1561.28 1217.94 1559.72 1216.39 1560.09Z" fill="#9F0000"/>
<path d="M854.013 64.1899C851.757 63.91 847.544 65.7405 844.873 68.2955C839.863 72.5056 839.925 72.7643 845.388 75.0109C849.051 76.5948 851.96 76.1712 854.89 73.5541C860.097 69.0234 859.623 64.7603 854.013 64.1899Z" fill="#9F0000"/>
<path d="M846.479 233.682C842.929 233.712 840.436 231.301 839.444 227.161C837.956 220.953 816.092 206.224 810.4 207.589C804.189 209.077 807.044 214.137 818.125 222.697C824.727 227.406 832.848 235.034 836.034 239.194C842.086 247.318 843.566 247.784 849.053 240.998C853.692 235.235 853.382 233.942 846.479 233.682Z" fill="#9F0000"/>
<path d="M797.765 87.5195C796.471 87.8296 795.488 89.4331 795.798 90.7266C796.17 92.2787 797.711 93.0033 799.005 92.6932C800.558 92.3211 801.345 91.0383 800.973 89.4861C800.663 88.1927 799.318 87.1473 797.765 87.5195Z" fill="#9F0000"/>
<path d="M830.419 509.166C829.125 509.476 828.142 511.079 828.514 512.631C828.824 513.925 830.242 514.132 831.349 513.046C832.716 511.898 833.441 510.356 833.255 509.58C833.131 509.063 831.972 508.793 830.419 509.166Z" fill="#9F0000"/>
<path d="M723.357 73.8958C721.877 73.4298 720.707 74.2572 721.017 75.5507C721.389 77.1028 722.993 78.0862 724.286 77.7761C725.839 77.4039 726.75 76.6385 726.626 76.1211C726.44 75.345 725.095 74.2997 723.357 73.8958Z" fill="#9F0000"/>
<path d="M823.287 512.516C821.228 511.916 819.096 512.153 818.505 513.115C816.734 516.002 820.718 517.782 824.031 515.621C826.629 513.904 826.505 513.386 823.287 512.516Z" fill="#9F0000"/>
<path d="M736.067 212.548C733.552 212.33 731.223 212.888 730.633 213.85C728.862 216.737 733.86 220.463 738 219.471C742.916 218.292 741.48 213.439 736.067 212.548Z" fill="#9F0000"/>
<path d="M815.182 601.995C811.187 601.311 810.99 601.632 813.939 603.661C816.185 605.037 818.441 605.317 819.031 604.355C819.621 603.393 817.955 602.151 815.182 601.995Z" fill="#9F0000"/>
<path d="M718.309 292.577C717.015 292.887 716.155 295.008 716.651 297.078C717.147 299.147 718.875 300.648 720.169 300.338C721.721 299.966 722.323 297.907 721.827 295.837C721.331 293.768 719.861 292.205 718.309 292.577Z" fill="#9F0000"/>
<path d="M793.899 613.661C792.263 615.968 791.072 618.989 791.382 620.283C791.692 621.576 793.379 620.625 794.891 617.8C796.465 615.235 797.656 612.214 797.408 611.179C797.222 610.403 795.535 611.354 793.899 613.661Z" fill="#9F0000"/>
<path d="M710.344 282.177C708.864 281.711 707.632 282.28 708.004 283.832C708.314 285.125 710.104 286.885 711.583 287.351C713.322 287.755 714.295 287.248 713.923 285.696C713.613 284.402 712.082 282.581 710.344 282.177Z" fill="#9F0000"/>
<path d="M834.483 858.335C830.86 859.203 823.448 864.81 817.712 870.561C812.039 876.571 805.599 881.671 803.529 882.167C801.459 882.663 799.958 884.391 800.268 885.684C801.322 890.082 809.489 886.483 813.88 879.686C816.241 875.838 823.467 869.455 829.772 864.935C838.675 858.698 839.72 857.353 834.483 858.335Z" fill="#9F0000"/>
<path d="M766.162 612.103C763.224 608.977 761.146 603.731 760.981 600.761C760.984 593.922 755.272 590.641 752.124 595.772C749.763 599.62 759.227 615.133 765.456 618.29C771.624 621.189 771.78 618.416 766.162 612.103Z" fill="#9F0000"/>
<path d="M806.924 825.549C804.522 826.946 803.6 828.808 804.563 829.398C805.525 829.988 807.409 828.716 808.786 826.471C810.495 823.326 810.174 823.129 806.924 825.549Z" fill="#9F0000"/>
<path d="M757.665 669.123C754.819 669.805 754.229 670.767 756.485 671.047C758.482 671.389 760.749 670.572 761.339 669.61C762.188 668.586 760.45 668.182 757.665 669.123Z" fill="#9F0000"/>
<path d="M798.085 910.827C796.791 911.137 795.808 912.74 796.118 914.034C796.49 915.586 798.031 916.311 799.325 916.001C800.878 915.628 801.665 914.346 801.293 912.793C800.983 911.5 799.638 910.455 798.085 910.827Z" fill="#9F0000"/>
<path d="M752.252 727.592C747.853 728.646 744.311 734.419 746.484 736.634C747.891 737.938 746.699 740.959 743.966 743.255C741.554 745.748 740.177 747.993 741.139 748.583C743.384 749.96 750.974 739.387 752.85 732.372C753.524 729.475 753.287 727.344 752.252 727.592Z" fill="#9F0000"/>
<path d="M712.56 589.389C711.266 589.699 711.058 591.116 712.145 592.224C713.293 593.59 714.835 594.314 715.611 594.128C716.129 594.004 716.398 592.846 716.026 591.293C715.716 590 714.112 589.017 712.56 589.389Z" fill="#9F0000"/>
<path d="M776.277 857.514C773.876 858.91 772.954 860.773 773.916 861.363C774.878 861.953 776.763 860.681 778.14 858.436C779.849 855.29 779.528 855.094 776.277 857.514Z" fill="#9F0000"/>
<path d="M683.451 490.775C678.432 489.243 672.974 499.578 677.465 502.332C679.711 503.708 682.94 503.481 684.824 502.209C689.048 499.282 688.212 492.37 683.451 490.775Z" fill="#9F0000"/>
<path d="M725.059 683.777C721.705 683.486 716.457 685.565 712.875 688.885L706.56 694.502L715.617 692.331C727.582 689.737 733.121 684.306 725.059 683.777Z" fill="#9F0000"/>
<path d="M768.078 864.403C767.229 865.427 763.264 868.293 759.755 870.775C756.245 873.258 754.092 875.689 755.054 876.279C756.979 877.459 770.965 866.173 770.407 863.845C770.221 863.069 769.186 863.317 768.078 864.403Z" fill="#9F0000"/>
<path d="M699.223 692.431C695.87 692.141 692.703 692.626 692.112 693.588C691.781 694.488 693.902 695.348 697.255 695.638C700.609 695.929 703.776 695.443 704.366 694.481C704.697 693.581 702.576 692.722 699.223 692.431Z" fill="#9F0000"/>
<path d="M664.691 594.023C660.252 592.625 657.176 596.919 658.54 602.61C659.284 605.714 661.53 607.091 664.894 606.284C670.328 604.982 670.352 595.949 664.691 594.023Z" fill="#9F0000"/>
<path d="M741.645 920.798C738.51 917.994 736.834 917.848 736.036 920.228C735.435 922.287 736.955 925.205 739.78 926.716C745.875 930.453 747.47 925.694 741.645 920.798Z" fill="#9F0000"/>
<path d="M723.366 895.91C722.073 896.22 721.089 897.823 721.461 899.375C721.771 900.669 723.189 900.876 724.297 899.79C725.663 898.642 726.388 897.1 726.202 896.324C726.078 895.807 724.919 895.537 723.366 895.91Z" fill="#9F0000"/>
<path d="M714.983 895.183C709.549 896.486 704.59 902.051 707.87 903.18C709.671 903.843 712.787 902.001 714.878 899.312C718.078 895.536 718.151 894.698 714.983 895.183Z" fill="#9F0000"/>
<path d="M715.732 943.97C708.89 943.968 699.834 946.139 700.206 947.691C701.012 951.054 712.893 950.394 714.861 947.187C716.042 945.263 716.249 943.846 715.732 943.97Z" fill="#9F0000"/>
<path d="M638.91 709.075C631.923 710.75 629.201 711.95 633.465 711.475C637.47 711.062 643.163 709.697 646.403 708.374C649.384 707.112 646.155 707.339 638.91 709.075Z" fill="#9F0000"/>
<path d="M684.059 896.304C679.226 895.547 677.393 898.175 678.819 904.125C679.873 908.522 686.754 910.976 688.981 907.707C691.083 903.921 687.991 896.729 684.059 896.304Z" fill="#9F0000"/>
<path d="M609.382 765.118C599.552 760.635 578.573 761.013 563.999 766.421C550.336 771.064 548.711 772.274 547.6 780.2C546.231 788.187 546.738 789.16 554.768 792.98C564.464 798.042 573.965 796.585 593.871 787.164C605.93 781.538 614.658 773.428 613.604 769.03C613.356 767.995 611.307 766.298 609.382 765.118Z" fill="#9F0000"/>
<path d="M559.329 630.492C556.752 630.016 553.771 631.277 552.591 633.202C551.213 635.447 551.4 636.223 553.47 635.726C555.022 635.354 558.313 635.386 560.828 635.604C563.343 635.822 565.092 635.129 564.72 633.577C564.41 632.283 561.844 630.71 559.329 630.492Z" fill="#9F0000"/>
<path d="M561.485 706.843C556.994 704.09 551.994 707.203 553.887 711.673C554.962 713.877 557.528 715.451 559.34 715.016C563.48 714.024 564.693 708.81 561.485 706.843Z" fill="#9F0000"/>
<path d="M559.71 749.669C556.088 750.537 554.918 751.364 556.915 751.706C558.592 751.852 561.697 751.107 563.384 750.156C564.751 749.008 563.333 748.8 559.71 749.669Z" fill="#9F0000"/>
<path d="M618.009 978.06C613.739 965.953 608.502 966.935 604.305 980.25C600.181 992.728 601.173 996.867 609.389 1001.46C614.139 1004.15 616.592 1004.11 619.46 1001.24C623.373 997.017 623.158 992.692 618.009 978.06Z" fill="#9F0000"/>
<path d="M707.259 1472.58C699.331 1471.47 691.598 1476.88 689.391 1484.8C687.38 1492.39 687.566 1493.17 692.771 1495.48C699.715 1498.19 707.044 1494.52 710.286 1486.36C713.528 1478.19 712.35 1473.28 707.259 1472.58Z" fill="#9F0000"/>
<path d="M579.342 952.587C576.495 953.27 575.905 954.232 578.161 954.512C580.158 954.854 582.425 954.037 583.015 953.075C583.864 952.05 582.126 951.646 579.342 952.587Z" fill="#9F0000"/>
<path d="M678.437 1496.18C672.197 1494.12 668.623 1503.18 672.284 1511.6C675.572 1518.47 675.168 1520.21 668.065 1527.11C660.508 1534.4 659.71 1536.77 662.594 1545.38C663.411 1547.65 662.664 1551.39 660.77 1553.75C655.799 1560.42 658.158 1563.41 663.573 1557.46C666.12 1554.39 670.344 1551.46 672.932 1550.84C675.519 1550.22 679.36 1546.84 681.721 1542.99C684.869 1537.86 685.16 1534.5 681.934 1527.89C679.473 1522.19 679.133 1517.35 681.049 1512.79C683.836 1505.01 682.876 1497.58 678.437 1496.18Z" fill="#9F0000"/>
<path d="M701.517 1637C699.964 1637.37 698.463 1639.09 697.996 1640.57C697.592 1642.31 698.875 1643.1 700.945 1642.6C703.274 1642.04 704.838 1640.58 704.466 1639.02C704.156 1637.73 702.81 1636.69 701.517 1637Z" fill="#9F0000"/>
<path d="M470.592 715.772C468.522 716.268 467.797 717.809 468.883 718.917C470.29 720.221 472.225 720.304 473.333 719.218C476.398 716.021 475.25 714.655 470.592 715.772Z" fill="#9F0000"/>
<path d="M625.56 1386.3C621.969 1383.88 619.112 1385.66 620.104 1389.8C620.6 1391.87 622.845 1393.24 624.916 1392.75C629.056 1391.75 629.347 1388.4 625.56 1386.3Z" fill="#9F0000"/>
<path d="M232.999 112.643C231.716 111.857 228.425 111.825 225.837 112.445C222.215 113.313 221.293 115.175 223.123 119.387C224.509 122.885 227.075 124.458 230.439 123.652C235.614 122.411 237.169 115.2 232.999 112.643Z" fill="#9F0000"/>
<path d="M366.385 706.828C361.056 704.002 360.28 704.188 355.9 709.888C351.975 715.205 351.83 716.882 355.534 720.918C360.385 726.32 367.682 725.939 371.42 719.846C374.765 714.394 373.318 710.637 366.385 706.828Z" fill="#9F0000"/>
<path d="M376.664 757.706C373.818 758.389 373.228 759.351 375.484 759.631C377.481 759.973 379.748 759.156 380.338 758.193C381.187 757.169 379.449 756.765 376.664 757.706Z" fill="#9F0000"/>
<path d="M298.146 491.761C296.852 492.071 295.868 493.674 296.24 495.226C296.55 496.52 297.968 496.727 299.076 495.641C300.442 494.493 301.168 492.951 300.982 492.175C300.858 491.658 299.698 491.388 298.146 491.761Z" fill="#9F0000"/>
<path d="M587.52 1711.64C581.746 1708.1 556.557 1729.73 551.989 1741.5C544.24 1761.68 556.734 1784.13 569.365 1772.89C574.055 1768.49 585.116 1746.14 584.248 1742.52C584 1741.48 585.297 1734.33 587.11 1727.06C589.525 1717.73 589.765 1713.02 587.52 1711.64Z" fill="#9F0000"/>
<path d="M340.605 703.159C339.312 703.469 338.328 705.073 338.638 706.366C339.01 707.918 340.552 708.643 341.846 708.333C343.398 707.961 344.185 706.678 343.813 705.126C343.503 703.832 342.158 702.787 340.605 703.159Z" fill="#9F0000"/>
<path d="M184.792 138.696C182.722 139.192 181.22 140.92 181.53 142.213C181.902 143.765 183.962 144.366 186.032 143.87C188.102 143.373 189.665 141.904 189.293 140.352C188.983 139.059 186.862 138.2 184.792 138.696Z" fill="#9F0000"/>
<path d="M285.255 648.038C284.738 648.162 283.36 650.407 282.045 652.911C280.202 656.635 280.388 657.411 284.01 656.543C286.339 655.985 287.716 653.74 287.22 651.67C286.724 649.601 285.773 647.914 285.255 648.038Z" fill="#9F0000"/>
<path d="M344.763 937.415C343.469 937.725 342.61 939.846 343.168 942.174C343.664 944.244 345.205 944.968 346.313 943.882C347.68 942.734 348.281 940.675 347.909 939.123C347.599 937.83 346.316 937.043 344.763 937.415Z" fill="#9F0000"/>
<path d="M268.123 657.615C265.795 658.174 264.552 659.839 265.441 661.267C266.331 662.695 268.194 663.617 269.488 663.307C270.781 662.996 272.024 661.331 272.169 659.655C272.315 657.978 270.452 657.057 268.123 657.615Z" fill="#9F0000"/>
<path d="M457.624 1564.69C455.16 1565.83 453.586 1568.4 454.082 1570.47C455.446 1576.16 462.702 1573.33 462.435 1567.64C462.344 1563.84 461.061 1563.05 457.624 1564.69Z" fill="#9F0000"/>
<path d="M326.435 1049.31C324.354 1050.91 319.882 1052.8 316.518 1053.6C308.755 1055.47 299.653 1068.86 301.327 1075.85C302.877 1082.31 313.349 1087.19 319.125 1083.89C327.883 1079.33 332.233 1070.08 331.378 1058.52C330.513 1048.06 330.006 1047.09 326.435 1049.31Z" fill="#9F0000"/>
<path d="M433.46 1501.55C432.166 1501.86 431.182 1503.47 431.492 1504.76C431.864 1506.31 433.406 1507.04 434.7 1506.73C436.252 1506.35 437.039 1505.07 436.667 1503.52C436.357 1502.23 435.012 1501.18 433.46 1501.55Z" fill="#9F0000"/>
<path d="M176.347 901.461C167.471 891.826 143.015 891.396 135.435 900.872C133.479 902.982 131.945 908 132.037 911.808C132.002 921.938 150.213 933.986 163.709 933.213C172.299 932.522 174.442 931.187 178.709 923.873C184.032 914.117 183.434 909.337 176.347 901.461Z" fill="#9F0000"/>
<path d="M141.712 774.082C140.232 773.616 138.545 774.567 137.882 776.368C137.416 777.847 138.761 778.893 140.831 778.396C145.489 777.28 145.893 775.542 141.712 774.082Z" fill="#9F0000"/>
<path d="M-30.4023 68.5444C-31.5101 69.6306 -32.494 71.2342 -32.308 72.0103C-32.184 72.5276 -30.7661 72.7349 -29.4723 72.4248C-27.9197 72.0527 -27.1946 70.5111 -27.5666 68.959C-27.8766 67.6655 -29.0358 67.3962 -30.4023 68.5444Z" fill="#9F0000"/>
<path d="M48.072 878.864C45.7026 876.97 38.4894 875.416 31.9071 875.353C25.6455 875.486 11.4782 872.316 0.871429 868.02C-9.93209 864.044 -23.2611 860.947 -28.6224 861.411C-62.4665 864.052 -74.4721 864.194 -80.4534 862.072C-88.5561 859.09 -107.012 865.428 -114.839 873.869C-118.949 878.411 -123.022 892.244 -121.72 897.676C-121.596 898.194 -114.321 900.006 -105.431 901.705C-96.8003 903.466 -79.1045 908.799 -66.4384 913.696C-37.567 924.557 -21.3699 924.778 -4.04102 914.88C2.64631 910.815 17.0238 905.728 28.4713 903.257C40.1776 900.725 50.4768 896.889 51.9162 894.903C55.5091 890.485 53.897 883.759 48.072 878.864Z" fill="#9F0000"/>
<path d="M-11.5015 741.049C-23.4046 743.902 -27.1001 745.609 -23.8196 746.737C-21.4395 747.535 -15.178 747.402 -10.2615 746.223C-5.34499 745.045 0.296524 742.325 2.05661 740.535C4.46898 738.042 0.401553 738.196 -11.5015 741.049Z" fill="#9F0000"/>
<path d="M152.636 1411.02C150.092 1407.26 143.043 1408.67 143.911 1412.29C144.593 1415.14 152.768 1417.28 153.887 1415.1C154.28 1414.46 153.526 1412.45 152.636 1411.02Z" fill="#9F0000"/>
<path d="M66.3572 1225.72C65.0634 1226.03 64.0796 1227.63 64.3896 1228.93C64.7616 1230.48 66.3034 1231.2 67.5972 1230.89C69.1498 1230.52 69.9369 1229.24 69.5649 1227.69C69.2549 1226.39 67.9098 1225.35 66.3572 1225.72Z" fill="#9F0000"/>
<path d="M-85.3356 741.239C-95.2711 740.885 -106.107 740.199 -109.781 739.712C-125.056 737.629 -132.417 744.59 -122.287 751.463C-116.069 755.717 -106.764 754.581 -103.419 749.129C-102.042 746.884 -98.1606 745.954 -90.4192 746.287C-84.5512 746.795 -76.8609 745.773 -73.621 744.449C-69.0873 742.815 -72.3057 741.945 -85.3356 741.239Z" fill="#9F0000"/>
<path d="M6.98178 1423.23C5.68797 1423.54 4.70418 1425.14 5.0762 1426.69C5.38622 1427.99 6.804 1428.19 7.9118 1427.11C9.27837 1425.96 10.0032 1424.42 9.81723 1423.64C9.69322 1423.13 8.53436 1422.86 6.98178 1423.23Z" fill="#9F0000"/>
<path d="M-336.587 102.814C-338.274 103.765 -339.258 105.369 -339.01 106.404C-338.007 109.446 -334.571 107.801 -334.021 104.387C-333.937 102.452 -335.22 101.665 -336.587 102.814Z" fill="#9F0000"/>
<path d="M-219.591 940.283C-230.872 938.883 -235.451 951.743 -224.243 953.981C-218.189 955.265 -216.698 954.634 -215.372 951.034C-213.31 944.795 -214.758 941.039 -219.591 940.283Z" fill="#9F0000"/>
<path d="M-396.63 230.181C-397.738 231.267 -398.722 232.871 -398.536 233.647C-398.412 234.164 -396.994 234.372 -395.7 234.061C-394.148 233.689 -393.422 232.148 -393.794 230.596C-394.104 229.302 -395.264 229.033 -396.63 230.181Z" fill="#9F0000"/>
</svg>
