<svg width="24" height="24" viewBox="0 0 24 24" fill="none" xmlns="http://www.w3.org/2000/svg">
<path fill-rule="evenodd" clip-rule="evenodd" d="M7.05042 0.0714569C8.33188 0.0142914 8.74157 0 12 0C15.2584 0 15.6681 0.0142914 16.9544 0.0666931C18.2358 0.123859 19.1076 0.328702 19.8698 0.624057C20.6558 0.933704 21.3275 1.34339 21.9945 2.01032C22.6614 2.67725 23.0758 3.34418 23.3807 4.13497C23.6761 4.90194 23.8809 5.77372 23.9381 7.05042C23.9953 8.33188 24.0095 8.7368 24.0095 12C24.0095 15.2632 23.9953 15.6681 23.9381 16.9496C23.8809 18.231 23.6761 19.1028 23.3807 19.865C23.0711 20.6511 22.6614 21.3227 21.9945 21.9897C21.3275 22.6566 20.6606 23.0711 19.8698 23.3759C19.1028 23.6713 18.2311 23.8761 16.9544 23.9333C15.6729 23.9905 15.268 24.0048 12.0048 24.0048C8.74157 24.0048 8.33665 23.9905 7.05519 23.9333C5.77372 23.8761 4.90195 23.6713 4.13974 23.3759C3.35371 23.0663 2.68202 22.6566 2.01509 21.9897C1.34816 21.3227 0.933705 20.6558 0.628821 19.865C0.333466 19.0981 0.128623 18.2263 0.071457 16.9496C0.0142914 15.6681 0 15.2584 0 12C0 8.74156 0.0142914 8.33188 0.071457 7.05518C0.128623 5.77372 0.333466 4.90195 0.628821 4.13974C0.938468 3.35371 1.34816 2.68202 2.01509 2.01509C2.68202 1.34815 3.34895 0.933704 4.13974 0.628821C4.90195 0.333466 5.77372 0.128622 7.05042 0.0714569ZM18.4074 7.03134C19.202 7.03134 19.8461 6.38722 19.8461 5.59267C19.8461 4.79812 19.202 4.154 18.4074 4.154C17.6129 4.154 16.9688 4.79812 16.9688 5.59267C16.9688 6.38722 17.6129 7.03134 18.4074 7.03134ZM12.0003 5.84048C8.59894 5.84048 5.83594 8.59871 5.83594 12.0048C5.83594 15.4109 8.59418 18.1692 12.0003 18.1692C15.4064 18.1692 18.1646 15.4109 18.1646 12.0048C18.1646 8.59871 15.4064 5.84048 12.0003 5.84048ZM12.0003 16.0016C9.78989 16.0016 7.9987 14.2105 7.9987 12.0001C7.9987 9.78966 9.78989 7.99848 12.0003 7.99848C14.2107 7.99848 16.0019 9.78966 16.0019 12.0001C16.0019 14.2105 14.2107 16.0016 12.0003 16.0016Z" fill="#FAFAFA"/>
</svg>
