<svg width="35" height="35" viewBox="0 0 35 35" fill="none" xmlns="http://www.w3.org/2000/svg">
<path fill-rule="evenodd" clip-rule="evenodd" d="M18.6742 6.9503C18.5607 6.81528 18.4529 6.68835 18.3513 6.56997V0H27C31.4183 0 35 3.58172 35 8V27C35 31.4183 31.4183 35 27 35H8C3.58172 35 0 31.4183 0 27V8C0 3.58172 3.58172 0 8 0H16.3815V6.57006C16.2799 6.68841 16.1721 6.81531 16.0587 6.9503C13.0862 10.4877 6.27585 19.5795 8.89127 25.88C12.201 33.853 22.5318 33.853 25.8416 25.88C28.457 19.5795 21.6467 10.4877 18.6742 6.9503ZM17.3664 8.45753C17.2813 8.5601 17.1935 8.66682 17.1032 8.77752C16.0858 10.0249 14.7719 11.7574 13.5645 13.7157C12.3499 15.6855 11.2875 17.813 10.7164 19.8565C10.1422 21.9108 10.1155 23.6911 10.7106 25.1247C12.0629 28.3824 14.7595 29.8899 17.3664 29.8899C19.9734 29.8899 22.6699 28.3824 24.0222 25.1247C24.6174 23.6911 24.5906 21.9108 24.0165 19.8565C23.4453 17.813 22.3829 15.6855 21.1684 13.7157C19.961 11.7574 18.647 10.0249 17.6296 8.77752C17.5393 8.66682 17.4515 8.5601 17.3664 8.45753Z" fill="#9F0000"/>
</svg>
