<svg width="24" height="24" viewBox="0 0 24 24" fill="none" xmlns="http://www.w3.org/2000/svg">
<path d="M22.7992 12.1805C22.7992 10.7951 21.7363 9.67067 20.4266 9.67067C19.7813 9.67067 19.2119 9.93169 18.7943 10.3734C17.1809 9.14862 14.9412 8.34548 12.4737 8.24508L13.5556 2.88406L17.0671 3.66713C17.105 4.61083 17.8453 5.37382 18.7563 5.37382C19.6864 5.37382 20.4456 4.57067 20.4456 3.58681C20.4456 2.60296 19.6864 1.7998 18.7563 1.7998C18.092 1.7998 17.5226 2.20138 17.2569 2.80374L13.3279 1.92028C13.214 1.9002 13.1001 1.92028 13.0052 1.98051C12.9103 2.04075 12.8533 2.14114 12.8154 2.26162L11.6196 8.24508C9.09518 8.3254 6.83648 9.10847 5.20414 10.3734C4.78656 9.95177 4.19816 9.67067 3.5718 9.67067C2.26214 9.67067 1.19922 10.7951 1.19922 12.1805C1.19922 13.2045 1.76864 14.0679 2.60379 14.4695C2.56583 14.7104 2.54685 14.9715 2.54685 15.2325C2.54685 19.0876 6.77954 22.1998 12.0182 22.1998C17.2569 22.1998 21.4896 19.0876 21.4896 15.2325C21.4896 14.9715 21.4706 14.7305 21.4326 14.4896C22.2108 14.088 22.7992 13.2045 22.7992 12.1805ZM6.57075 13.9675C6.57075 12.9837 7.32998 12.1805 8.26003 12.1805C9.19008 12.1805 9.94931 12.9837 9.94931 13.9675C9.94931 14.9514 9.19008 15.7545 8.26003 15.7545C7.32998 15.7545 6.57075 14.9514 6.57075 13.9675ZM16.0041 18.686C14.8463 19.9108 12.6446 19.9911 11.9992 19.9911C11.3539 19.9911 9.13314 19.8908 7.9943 18.686C7.82347 18.5053 7.82347 18.2041 7.9943 18.0234C8.16512 17.8427 8.44983 17.8427 8.62066 18.0234C9.34192 18.7864 10.8983 19.0675 12.0182 19.0675C13.1381 19.0675 14.6755 18.7864 15.4157 18.0234C15.5866 17.8427 15.8713 17.8427 16.0421 18.0234C16.175 18.2242 16.175 18.5053 16.0041 18.686ZM15.7004 15.7545C14.7704 15.7545 14.0112 14.9514 14.0112 13.9675C14.0112 12.9837 14.7704 12.1805 15.7004 12.1805C16.6305 12.1805 17.3897 12.9837 17.3897 13.9675C17.3897 14.9514 16.6305 15.7545 15.7004 15.7545Z" fill="#FAFAFA"/>
</svg>
