<svg width="24" height="24" viewBox="0 0 24 24" fill="none" xmlns="http://www.w3.org/2000/svg">
<path d="M21.0586 7.18114C21.0678 7.39235 21.0679 7.59395 21.0679 7.80515C21.0771 14.2084 16.3726 21.6004 7.76939 21.6004C5.23194 21.6004 2.7408 20.842 0.601562 19.4212C0.971993 19.4692 1.34242 19.4884 1.71285 19.4884C3.81505 19.4884 5.86168 18.7588 7.51935 17.4052C5.51903 17.3668 3.75948 16.0132 3.14827 14.0356C3.85209 14.1796 4.57443 14.1508 5.25973 13.9492C3.08345 13.5076 1.51838 11.5204 1.50912 9.20675C1.50912 9.18755 1.50912 9.16835 1.50912 9.14915C2.15737 9.52355 2.88897 9.73475 3.62983 9.75395C1.5832 8.33315 0.944211 5.50114 2.18515 3.28353C4.56517 6.31714 8.06574 8.15075 11.8256 8.35235C11.4459 6.67234 11.9645 4.90594 13.1777 3.71553C15.0576 1.88193 18.0211 1.97793 19.7991 3.92673C20.8456 3.71553 21.855 3.31233 22.7718 2.74593C22.4199 3.86913 21.6883 4.81954 20.7159 5.42434C21.642 5.30914 22.5496 5.04994 23.4016 4.66594C22.7718 5.64514 21.9754 6.48994 21.0586 7.18114Z" fill="#FAFAFA"/>
</svg>
